<?xml version="1.0" standalone="no"?>
<!DOCTYPE svg PUBLIC "-//W3C//DTD SVG 20010904//EN"
 "http://www.w3.org/TR/2001/REC-SVG-20010904/DTD/svg10.dtd">
<svg version="1.0" xmlns="http://www.w3.org/2000/svg"
 width="6000.000000pt" height="6000.000000pt" viewBox="0 0 6000.000000 6000.000000"
 preserveAspectRatio="xMidYMid meet">
<metadata>
Created by potrace 1.11, written by Peter Selinger 2001-2013
</metadata>
<g transform="translate(0.000000,6000.000000) scale(0.100000,-0.100000)"
fill="#000000" stroke="none">
<path d="M22915 47823 c-55 -97 -114 -201 -131 -232 -17 -31 -41 -74 -54 -96
-12 -22 -38 -69 -58 -105 -19 -36 -38 -69 -42 -75 -7 -9 -246 -434 -310 -550
-15 -27 -58 -104 -95 -170 -38 -66 -79 -140 -93 -165 -13 -25 -27 -49 -32 -55
-4 -5 -23 -39 -43 -75 -66 -122 -207 -375 -216 -390 -5 -8 -60 -105 -122 -215
-125 -223 -138 -245 -166 -295 -11 -19 -51 -89 -87 -155 -37 -66 -71 -127 -76
-135 -5 -8 -42 -73 -82 -145 -40 -71 -77 -137 -83 -147 -5 -9 -25 -44 -43 -78
-18 -34 -53 -95 -78 -136 -24 -42 -44 -77 -44 -79 0 -2 -22 -42 -50 -90 -27
-48 -50 -89 -50 -91 0 -2 -20 -38 -45 -78 -25 -41 -45 -77 -45 -79 0 -3 -33
-63 -74 -134 -40 -70 -84 -148 -98 -173 -14 -25 -96 -171 -183 -325 -87 -154
-169 -300 -183 -325 -13 -25 -40 -71 -58 -103 -19 -32 -34 -62 -34 -66 0 -5
-8 -19 -19 -32 -10 -13 -33 -51 -50 -84 -18 -33 -36 -67 -41 -75 -5 -8 -48
-85 -96 -170 -47 -85 -137 -245 -199 -355 -62 -110 -123 -218 -135 -240 -12
-22 -41 -74 -65 -115 -23 -41 -57 -102 -75 -135 -18 -33 -41 -73 -51 -90 -10
-16 -38 -66 -62 -110 -25 -44 -55 -98 -67 -120 -13 -22 -33 -58 -45 -80 -12
-22 -58 -104 -102 -182 -44 -78 -83 -147 -87 -155 -4 -7 -12 -22 -19 -33 -7
-11 -30 -52 -51 -90 -22 -39 -48 -86 -59 -105 -11 -19 -30 -53 -41 -75 -12
-22 -29 -51 -37 -65 -9 -14 -102 -178 -207 -365 -211 -377 -223 -399 -253
-452 -29 -52 -146 -258 -177 -313 -13 -25 -40 -71 -58 -103 -19 -32 -34 -60
-34 -62 0 -2 -33 -61 -74 -132 -40 -70 -86 -150 -101 -178 -60 -110 -259 -464
-295 -525 -20 -36 -52 -92 -70 -125 -18 -33 -61 -109 -95 -170 -34 -60 -77
-137 -95 -170 -18 -33 -59 -105 -90 -160 -32 -55 -69 -120 -82 -145 -23 -41
-366 -650 -411 -730 -11 -19 -31 -55 -45 -80 -14 -25 -57 -101 -95 -170 -97
-171 -144 -256 -177 -315 -15 -27 -55 -97 -87 -155 -33 -58 -144 -256 -247
-440 -104 -184 -205 -364 -226 -400 -20 -36 -52 -92 -70 -125 -57 -104 -82
-147 -111 -197 -16 -27 -29 -51 -29 -54 0 -3 -8 -18 -19 -32 -10 -15 -40 -67
-66 -117 -26 -49 -54 -99 -61 -110 -27 -43 -75 -131 -81 -147 -3 -10 -9 -18
-14 -18 -5 0 -9 -4 -9 -9 0 -5 -17 -40 -39 -78 -21 -37 -51 -90 -66 -118 -16
-27 -39 -69 -51 -92 -26 -48 -147 -262 -208 -368 -22 -38 -39 -72 -39 -75 1
-3 -4 -12 -11 -20 -7 -8 -44 -71 -82 -140 -38 -68 -73 -132 -79 -142 -5 -9
-20 -34 -31 -55 -75 -134 -606 -1081 -614 -1093 -17 -29 -234 -415 -251 -448
-10 -18 -22 -38 -27 -45 -5 -7 -24 -39 -41 -72 -18 -33 -41 -76 -53 -95 -16
-29 -157 -279 -235 -420 -11 -19 -49 -87 -85 -150 -74 -130 -89 -156 -143
-255 -21 -38 -45 -78 -53 -87 -8 -10 -12 -18 -7 -18 4 0 3 -6 -3 -12 -9 -12
-92 -156 -160 -278 -14 -25 -74 -133 -135 -240 -60 -107 -121 -215 -135 -240
-14 -25 -62 -110 -107 -190 -45 -80 -95 -170 -112 -200 -17 -30 -56 -99 -87
-154 -31 -54 -56 -100 -56 -102 0 -3 -11 -21 -23 -42 -13 -20 -43 -73 -67
-117 -23 -44 -51 -92 -61 -107 -11 -14 -19 -29 -19 -32 0 -3 -35 -68 -78 -143
-129 -227 -264 -465 -287 -508 -30 -56 -74 -134 -95 -170 -19 -33 -61 -108
-94 -170 -12 -22 -29 -51 -38 -65 -8 -14 -29 -50 -45 -80 -17 -30 -48 -86 -70
-125 -22 -38 -55 -97 -73 -130 -18 -33 -41 -73 -50 -90 -16 -28 -247 -438
-302 -535 -14 -25 -35 -63 -48 -85 -12 -22 -55 -98 -95 -170 -40 -71 -123
-220 -185 -330 -62 -110 -124 -220 -138 -245 -14 -25 -60 -107 -104 -183 -43
-76 -78 -141 -78 -144 0 -3 -8 -17 -19 -31 -10 -15 -33 -54 -50 -87 -18 -33
-42 -76 -53 -95 -11 -19 -34 -60 -50 -90 -17 -30 -58 -104 -93 -165 -34 -60
-75 -132 -90 -160 -16 -27 -47 -84 -70 -125 -23 -41 -55 -97 -70 -125 -16 -27
-37 -66 -48 -85 -11 -19 -39 -70 -64 -113 -24 -42 -55 -99 -70 -125 -14 -26
-35 -63 -46 -82 -11 -19 -39 -69 -62 -110 -116 -207 -165 -294 -176 -310 -5
-8 -15 -26 -21 -40 -7 -14 -22 -41 -33 -60 -12 -19 -38 -66 -59 -103 -46 -84
-65 -118 -105 -185 -17 -29 -31 -55 -31 -57 0 -2 -23 -42 -50 -90 -28 -48 -50
-89 -50 -91 0 -3 -8 -17 -19 -32 -15 -22 -90 -155 -288 -512 -11 -19 -62 -109
-113 -200 -51 -91 -104 -185 -118 -210 -14 -25 -105 -187 -202 -360 -98 -173
-188 -333 -200 -355 -12 -22 -50 -89 -85 -150 -34 -60 -73 -130 -87 -155 -14
-25 -58 -103 -98 -175 -40 -71 -84 -150 -98 -175 -14 -25 -84 -148 -155 -275
-72 -126 -139 -246 -150 -265 -135 -242 -214 -381 -230 -410 -11 -19 -73 -131
-139 -248 -66 -117 -132 -236 -148 -263 l-29 -49 127 -1 c407 -3 9266 -30
10812 -32 l994 -2 117 210 c65 116 125 224 135 240 10 17 18 32 18 35 1 3 11
21 22 40 12 19 115 204 229 410 114 206 219 395 233 420 22 40 254 456 559
1005 55 99 117 212 138 250 21 39 49 87 62 107 13 21 23 39 23 42 0 3 104 191
197 356 11 19 33 60 50 90 59 106 481 865 500 900 11 19 35 62 53 95 18 33 86
155 150 270 159 286 192 346 204 372 6 13 14 23 19 23 4 0 7 5 7 10 0 6 31 66
69 133 37 67 82 147 98 177 44 81 83 151 103 185 17 30 48 85 100 180 15 28
40 73 55 100 16 28 57 102 92 165 35 63 68 122 73 130 5 8 18 31 28 50 10 19
63 116 118 215 56 99 104 187 108 195 20 45 354 632 360 633 4 1 17 -16 29
-38 12 -22 24 -42 27 -45 3 -3 13 -21 22 -40 10 -19 34 -62 53 -95 20 -33 41
-72 46 -87 6 -16 15 -28 20 -28 5 0 9 -5 9 -10 0 -6 30 -64 67 -128 36 -64 77
-137 91 -162 71 -128 303 -540 321 -570 11 -19 27 -48 35 -65 9 -16 31 -57 51
-90 19 -33 38 -67 42 -75 4 -8 40 -73 80 -143 40 -71 73 -130 73 -132 0 -1 29
-53 65 -115 36 -62 65 -114 65 -115 0 -1 37 -67 82 -146 44 -79 92 -164 106
-189 14 -25 43 -76 65 -115 22 -38 53 -95 70 -125 16 -30 67 -120 112 -200 45
-80 85 -152 88 -160 4 -8 17 -31 28 -50 22 -36 108 -189 234 -415 40 -71 83
-148 95 -170 13 -22 33 -58 45 -80 40 -73 77 -139 135 -240 31 -55 70 -125 87
-155 16 -30 60 -109 98 -175 65 -115 88 -155 143 -255 13 -25 41 -74 62 -110
20 -36 48 -85 62 -110 22 -40 152 -274 198 -355 9 -16 78 -138 152 -270 133
-237 177 -316 226 -405 14 -25 28 -49 32 -55 4 -5 21 -35 37 -65 44 -80 81
-146 123 -220 20 -36 48 -85 62 -110 23 -42 140 -251 185 -330 11 -19 35 -62
53 -95 32 -59 69 -125 343 -611 75 -133 146 -259 157 -280 12 -22 25 -46 30
-54 11 -18 59 -104 177 -315 50 -88 99 -176 110 -195 11 -19 35 -62 53 -95 62
-114 109 -198 300 -535 51 -91 103 -184 116 -207 26 -47 37 -66 164 -293 48
-85 130 -231 182 -325 53 -93 136 -242 185 -330 50 -88 103 -182 118 -210 15
-27 44 -79 65 -115 20 -36 51 -90 67 -120 17 -30 92 -165 168 -300 76 -135
146 -258 155 -275 9 -16 71 -127 137 -245 66 -118 131 -233 143 -255 28 -49
39 -68 213 -380 77 -137 168 -299 202 -360 34 -60 73 -130 87 -155 84 -150
176 -314 208 -370 20 -36 52 -92 70 -125 43 -78 352 -629 378 -675 12 -19 30
-51 40 -71 11 -20 62 -110 113 -200 51 -90 102 -182 114 -204 12 -22 75 -134
140 -250 65 -115 157 -280 205 -365 48 -85 99 -176 113 -202 15 -27 38 -67 51
-90 12 -24 54 -97 91 -163 37 -66 78 -138 90 -160 12 -22 42 -76 67 -120 25
-44 56 -100 70 -125 14 -25 34 -61 45 -80 11 -19 35 -62 53 -95 18 -33 64
-114 102 -179 37 -66 68 -121 68 -123 0 -2 39 -72 86 -156 129 -227 130 -228
159 -282 15 -27 35 -63 45 -80 10 -16 30 -52 45 -80 78 -141 259 -464 275
-490 10 -16 29 -50 42 -75 69 -124 82 -147 98 -175 10 -16 29 -50 42 -75 14
-25 67 -119 118 -210 51 -91 103 -184 116 -207 28 -49 62 -110 114 -203 20
-36 49 -87 65 -115 134 -239 257 -459 280 -500 15 -27 68 -122 118 -210 49
-88 130 -233 180 -322 50 -90 92 -162 93 -160 1 1 89 155 196 342 510 888 668
1164 697 1213 17 29 31 55 31 58 0 3 8 18 18 32 11 15 32 52 49 82 16 30 50
89 74 130 24 41 50 86 57 100 7 14 20 39 31 55 10 17 77 134 149 260 73 127
136 237 142 245 5 8 18 31 28 50 11 19 78 138 150 263 73 125 142 247 156 270
25 45 341 596 423 738 28 48 53 93 57 100 4 8 12 23 19 34 7 11 39 67 72 125
33 57 65 112 70 122 86 150 143 250 158 278 11 19 28 47 38 62 11 14 19 28 19
31 0 2 63 114 140 247 77 134 140 244 140 246 0 1 18 32 40 68 22 36 40 68 40
72 0 3 8 18 19 32 10 15 38 63 61 107 24 44 46 82 50 85 3 3 13 21 22 40 9 19
27 51 40 70 13 19 33 53 45 75 11 22 76 137 145 255 68 118 127 222 131 230 4
8 17 31 28 50 12 19 99 172 195 340 96 168 178 312 183 320 10 16 223 385 253
437 10 18 26 48 37 65 45 78 136 237 159 278 13 25 41 72 61 105 20 33 36 62
36 65 0 3 8 16 17 30 19 29 350 608 398 695 18 33 36 65 40 70 7 9 285 493
348 605 14 25 57 99 95 165 38 66 142 248 232 405 89 157 172 301 183 320 30
51 91 157 123 216 l28 50 -26 45 c-14 24 -40 71 -58 104 -17 33 -55 100 -84
149 -28 49 -51 90 -51 91 0 2 -31 58 -70 126 -38 67 -70 124 -70 125 0 2 -37
68 -82 146 -45 79 -91 161 -102 183 -12 22 -23 42 -26 45 -3 3 -11 16 -17 30
-7 14 -28 52 -47 85 -20 33 -39 67 -43 75 -4 8 -115 209 -248 445 -133 237
-255 455 -272 485 -17 30 -51 91 -75 135 -25 44 -58 103 -73 130 -15 28 -45
79 -65 115 -21 36 -52 92 -70 125 -18 33 -81 146 -140 250 -59 105 -122 217
-140 250 -18 33 -39 69 -45 80 -7 11 -26 45 -42 75 -41 76 -82 149 -103 185
-10 17 -29 50 -42 75 -14 25 -77 137 -140 250 -63 113 -126 225 -140 250 -14
25 -35 63 -48 85 -23 40 -94 167 -145 260 -15 28 -65 115 -110 195 -45 80 -97
172 -115 205 -18 33 -85 152 -148 265 -63 113 -137 246 -165 295 -28 50 -57
101 -66 115 -8 14 -30 54 -49 90 -19 36 -37 70 -42 75 -4 6 -22 37 -40 70 -18
33 -74 132 -123 220 -49 88 -109 194 -132 235 -23 41 -51 91 -62 110 -11 19
-39 71 -63 115 -23 44 -46 85 -50 90 -4 6 -30 51 -58 100 -83 150 -100 181
-245 440 -77 138 -159 284 -182 325 -23 41 -66 118 -95 170 -30 52 -66 116
-82 143 -15 26 -28 49 -28 52 0 2 -15 30 -34 62 -18 32 -44 78 -58 103 -14 25
-67 119 -118 210 -51 91 -104 185 -118 210 -14 25 -128 230 -255 455 -126 226
-240 429 -253 453 -13 23 -36 63 -51 90 -14 26 -36 65 -48 87 -13 22 -64 114
-115 205 -51 91 -155 275 -230 410 -76 135 -146 261 -157 280 -11 19 -54 96
-95 170 -42 74 -106 189 -143 255 -37 66 -84 149 -103 185 -19 36 -43 77 -54
92 -10 14 -18 29 -18 33 0 3 -17 37 -39 73 -21 37 -49 87 -63 112 -14 25 -77
138 -141 251 -63 113 -135 241 -159 285 -25 43 -57 100 -71 127 -15 26 -39 68
-53 95 -15 26 -89 157 -164 292 -76 135 -150 268 -165 295 -16 28 -65 115
-110 195 -45 80 -96 170 -112 200 -17 30 -83 150 -148 265 -65 116 -126 226
-137 245 -11 19 -27 49 -37 65 -10 17 -31 55 -48 85 -16 30 -61 109 -98 175
-37 66 -77 138 -90 160 -26 48 -89 160 -240 430 -61 110 -123 220 -137 245
-14 25 -54 97 -90 160 -36 63 -79 140 -96 170 -16 30 -48 87 -69 125 -22 39
-74 131 -115 205 -42 74 -85 151 -97 170 -11 19 -25 45 -30 56 -5 12 -36 68
-69 125 -33 57 -71 124 -84 149 -14 25 -67 119 -118 210 -51 91 -101 179 -111
196 -10 18 -32 58 -49 90 -17 33 -41 75 -52 94 -11 19 -32 55 -46 80 -14 25
-77 137 -140 250 -63 113 -125 223 -137 245 -12 22 -34 63 -50 90 -27 47 -362
647 -417 745 -14 25 -34 61 -45 80 -11 19 -60 107 -110 195 -86 153 -107 190
-187 335 -20 36 -41 72 -46 80 -6 8 -14 24 -19 36 -5 11 -30 55 -55 98 -25 43
-46 79 -46 81 0 2 -15 30 -34 62 -18 32 -45 78 -58 103 -14 25 -67 119 -118
210 -51 91 -104 185 -118 210 -13 25 -32 59 -42 75 -10 17 -30 53 -45 80 -54
98 -124 224 -285 510 -90 160 -174 310 -188 335 -13 25 -32 59 -42 75 -10 17
-30 53 -45 80 -15 28 -49 88 -75 135 -26 47 -60 108 -75 135 -15 28 -43 76
-61 108 -19 32 -34 60 -34 62 0 2 -20 37 -44 79 -25 41 -60 102 -78 136 -18
34 -37 69 -43 78 -5 10 -30 53 -54 97 -58 106 -80 144 -102 180 -10 17 -23 39
-28 50 -5 11 -26 49 -46 85 -21 36 -51 90 -68 120 -17 30 -54 97 -84 148 -29
51 -53 94 -53 97 0 2 -20 38 -45 79 -25 42 -45 78 -45 80 0 2 -46 84 -101 182
-56 99 -112 197 -124 219 -12 22 -41 76 -65 120 -24 44 -51 92 -62 107 -10 14
-18 28 -18 31 0 2 -22 43 -50 91 -27 48 -50 89 -50 91 0 2 -20 38 -45 79 -25
42 -45 78 -45 80 0 2 -44 82 -98 177 -117 207 -149 264 -225 402 -13 23 -85
150 -159 282 -74 132 -150 267 -168 300 -18 33 -70 125 -115 205 -45 80 -128
228 -185 330 -57 102 -121 217 -143 255 -21 39 -51 93 -67 120 -15 28 -78 140
-140 250 -62 110 -126 225 -142 255 -16 30 -33 59 -37 65 -5 5 -25 42 -46 80
-21 39 -66 120 -100 180 -34 61 -77 137 -95 170 -42 76 -379 678 -431 768 -21
38 -39 71 -39 73 0 2 -18 33 -40 69 -22 36 -40 67 -40 69 0 2 -39 73 -86 158
-48 84 -98 173 -112 198 -79 141 -162 290 -182 325 -27 48 -44 78 -168 300
-52 94 -103 185 -114 203 -42 75 -56 100 -88 157 -18 33 -72 130 -120 215 -48
85 -102 182 -120 215 -18 33 -51 92 -73 130 -22 39 -53 95 -70 125 -17 30 -58
105 -92 165 -35 61 -75 133 -90 160 -15 28 -57 102 -93 165 -36 63 -76 135
-90 160 -13 25 -27 48 -31 52 -3 4 -51 -72 -106 -169z"/>
<path d="M38535 47948 c-42 -79 -63 -116 -105 -188 -20 -36 -53 -94 -72 -130
-20 -36 -57 -103 -83 -150 -51 -91 -93 -167 -133 -240 -14 -25 -42 -75 -63
-112 -22 -36 -39 -69 -39 -72 0 -3 -20 -40 -45 -82 -25 -41 -45 -77 -45 -79 0
-2 -16 -32 -36 -67 -20 -34 -95 -169 -167 -298 -71 -129 -139 -252 -151 -272
-12 -21 -57 -102 -100 -180 -44 -79 -88 -159 -99 -178 -11 -19 -42 -75 -70
-125 -58 -106 -103 -186 -131 -236 -12 -21 -43 -77 -69 -125 -26 -49 -52 -96
-57 -104 -9 -15 -186 -332 -226 -405 -24 -44 -201 -363 -241 -435 -14 -25
-118 -211 -231 -415 -113 -203 -214 -386 -225 -405 -60 -108 -319 -573 -343
-618 -16 -29 -34 -61 -39 -70 -6 -9 -44 -78 -85 -152 -41 -74 -80 -144 -87
-155 -7 -11 -16 -27 -20 -35 -4 -8 -171 -310 -371 -670 -200 -360 -379 -682
-397 -715 -18 -33 -62 -112 -97 -175 -36 -63 -80 -142 -97 -175 -18 -33 -40
-73 -50 -90 -10 -16 -32 -57 -51 -90 -18 -33 -40 -73 -50 -90 -9 -16 -34 -61
-55 -100 -21 -38 -56 -101 -79 -140 -22 -38 -41 -72 -41 -75 0 -3 -12 -25 -27
-50 -14 -25 -138 -248 -276 -496 -138 -247 -259 -466 -269 -485 -50 -88 -340
-610 -366 -659 -16 -30 -47 -84 -67 -120 -21 -36 -53 -94 -73 -130 -19 -36
-134 -244 -256 -463 -121 -219 -221 -400 -221 -403 0 -3 41 -78 92 -167 50
-89 100 -180 111 -202 11 -22 30 -56 42 -75 12 -19 37 -62 55 -95 18 -33 74
-132 123 -220 50 -88 101 -180 115 -205 14 -25 75 -133 135 -240 61 -107 121
-215 135 -240 14 -25 54 -97 90 -160 92 -164 109 -195 135 -242 23 -41 139
-248 275 -488 122 -216 461 -822 507 -905 16 -27 63 -112 107 -189 43 -76 78
-140 78 -142 0 -3 11 -21 23 -42 13 -20 69 -118 124 -217 55 -99 131 -234 168
-300 37 -66 79 -140 92 -165 14 -25 46 -81 71 -125 121 -215 333 -591 435
-775 17 -30 60 -107 95 -170 36 -63 79 -140 95 -170 16 -30 33 -59 37 -65 4
-5 22 -37 40 -70 18 -33 71 -127 118 -210 47 -82 101 -179 120 -215 20 -36 46
-82 59 -102 13 -21 23 -40 23 -42 0 -2 23 -43 50 -91 28 -48 50 -91 50 -96 0
-5 5 -9 10 -9 6 0 10 -4 10 -9 0 -7 219 -403 377 -681 11 -19 35 -62 53 -95
18 -33 103 -184 188 -335 85 -151 166 -295 180 -320 79 -143 154 -277 162
-290 12 -19 146 -258 186 -329 46 -84 163 -294 174 -311 5 -8 18 -31 28 -50
11 -19 67 -120 126 -223 58 -104 106 -193 106 -198 0 -5 4 -9 8 -9 4 0 13 -12
19 -27 7 -16 28 -55 47 -88 20 -33 39 -67 43 -75 4 -8 32 -60 64 -115 31 -55
110 -197 177 -315 136 -244 154 -275 183 -327 12 -21 35 -63 52 -93 17 -30 39
-67 49 -82 11 -16 16 -28 12 -28 -4 0 -1 -8 7 -17 8 -10 19 -27 25 -38 6 -11
52 -92 101 -180 49 -88 101 -180 115 -205 189 -339 442 -787 448 -795 4 -5 27
-46 50 -90 24 -44 54 -98 67 -120 12 -22 26 -47 30 -55 4 -8 21 -40 39 -70 17
-30 101 -179 186 -330 85 -151 164 -291 175 -310 11 -19 35 -62 53 -95 18 -33
52 -94 75 -135 23 -41 53 -95 67 -120 14 -25 35 -63 48 -85 50 -89 108 -193
132 -235 92 -166 220 -393 247 -438 17 -29 31 -55 31 -57 0 -3 13 -26 28 -52
16 -27 51 -88 79 -138 28 -49 103 -184 168 -300 65 -115 132 -235 148 -265 16
-30 33 -59 37 -65 4 -5 22 -37 40 -70 18 -33 74 -132 123 -220 50 -88 104
-185 121 -216 42 -75 175 -310 186 -329 8 -13 33 -58 160 -285 136 -244 360
-644 390 -695 20 -36 50 -90 66 -120 16 -30 31 -57 34 -60 3 -3 15 -23 27 -45
22 -41 47 -87 84 -152 52 -91 259 -461 332 -593 44 -80 82 -147 83 -149 5 -7
11724 -8 11724 -2 0 4 -4 11 -9 17 -4 5 -22 34 -38 64 -31 58 -108 195 -123
220 -5 8 -38 67 -73 130 -54 97 -123 221 -234 420 -11 19 -49 87 -85 150 -36
63 -80 142 -98 175 -18 33 -59 106 -91 162 -33 56 -69 121 -82 145 -54 99
-100 184 -107 193 -4 6 -22 37 -40 70 -18 33 -112 202 -210 375 -97 173 -179
322 -183 330 -4 8 -15 29 -26 45 -17 29 -84 148 -391 695 -76 135 -146 261
-157 280 -11 19 -35 62 -53 95 -18 33 -36 65 -40 70 -5 6 -22 37 -39 70 -18
33 -40 74 -50 90 -10 17 -33 57 -51 90 -18 33 -61 110 -95 170 -34 61 -73 130
-87 155 -14 25 -56 99 -93 165 -37 66 -77 138 -90 160 -12 22 -66 119 -120
215 -54 96 -109 195 -123 220 -14 25 -86 153 -160 285 -74 132 -148 265 -165
295 -16 30 -35 64 -42 76 -11 17 -132 233 -230 409 -15 28 -48 86 -73 130 -25
44 -59 105 -75 135 -17 30 -41 72 -54 92 -13 21 -23 39 -23 42 0 2 -37 68 -82
147 -44 79 -92 164 -106 189 -14 25 -75 135 -137 245 -62 110 -125 223 -140
250 -16 28 -79 140 -140 250 -62 110 -122 218 -135 240 -12 22 -45 81 -73 130
-27 50 -129 232 -227 405 -97 173 -188 335 -202 360 -14 25 -45 80 -69 124
-24 43 -53 94 -64 115 -12 20 -36 63 -54 96 -18 33 -36 65 -41 70 -4 6 -24 42
-44 80 -21 39 -47 86 -58 105 -20 33 -35 60 -90 160 -14 25 -56 99 -93 165
-38 66 -82 145 -98 175 -17 30 -76 136 -132 235 -56 99 -105 187 -108 195 -4
8 -15 29 -25 45 -10 17 -34 57 -52 90 -18 33 -52 94 -75 135 -38 66 -319 569
-387 690 -14 25 -35 63 -48 85 -35 62 -211 375 -235 420 -13 22 -48 84 -79
139 -31 54 -56 100 -56 102 0 2 -13 25 -29 52 -30 50 -51 89 -134 237 -27 50
-129 232 -227 405 -97 173 -188 335 -202 360 -14 25 -75 134 -136 243 -62 108
-112 199 -112 202 0 3 -18 34 -40 70 -22 36 -40 67 -40 69 0 2 -25 48 -56 102
-31 55 -70 124 -86 154 -17 30 -50 89 -73 130 -24 41 -53 93 -65 115 -12 22
-32 58 -45 80 -126 223 -193 342 -198 355 -4 8 -15 29 -25 45 -10 17 -34 57
-52 90 -18 33 -81 146 -140 250 -59 105 -122 217 -140 250 -18 33 -61 110 -95
170 -34 61 -73 130 -87 155 -21 37 -189 337 -348 620 -81 144 -139 248 -165
295 -15 28 -67 120 -115 205 -48 85 -161 286 -250 445 -89 160 -181 324 -205
365 -23 41 -59 107 -80 145 -21 39 -41 75 -45 80 -4 6 -30 51 -58 100 -54 99
-53 97 -190 340 -52 94 -109 195 -125 225 -17 30 -41 72 -54 92 -13 21 -23 40
-23 42 0 2 -23 44 -51 93 -28 48 -55 97 -61 108 -5 11 -14 29 -21 40 -7 11
-32 56 -57 100 -25 44 -53 94 -62 110 -10 17 -23 42 -29 58 -6 15 -15 27 -20
27 -5 0 -9 5 -9 11 0 6 -29 61 -64 122 -35 62 -126 225 -203 362 -77 138 -150
268 -163 290 -81 145 -212 379 -237 425 -17 30 -56 99 -87 154 -31 54 -56 102
-56 107 0 5 -4 9 -9 9 -5 0 -13 10 -17 23 -4 12 -54 105 -112 207 -58 102
-117 207 -131 234 -14 26 -30 56 -36 65 -5 9 -39 68 -74 131 -36 63 -73 131
-84 150 -70 122 -265 472 -322 575 -15 28 -42 75 -60 105 -18 30 -46 80 -62
110 -36 65 -65 118 -148 265 -35 61 -75 133 -90 160 -15 28 -98 176 -185 330
-86 154 -172 307 -190 340 -18 33 -61 110 -95 170 -35 61 -75 133 -90 160 -16
28 -69 122 -118 210 -49 88 -120 214 -157 280 -69 123 -96 171 -160 285 -20
36 -111 198 -202 360 -91 162 -175 313 -188 335 -12 22 -44 78 -70 125 -26 47
-58 103 -70 125 -13 22 -35 63 -50 90 -15 28 -36 66 -47 85 -110 193 -233 413
-233 416 0 2 -13 25 -29 51 -30 52 -185 327 -243 433 -57 104 -237 424 -248
440 -6 8 -13 22 -17 30 -4 8 -32 60 -63 115 -31 55 -69 123 -85 150 -34 63
-103 185 -115 205 -5 8 -20 35 -33 60 -14 25 -34 61 -45 80 -11 19 -35 62 -53
95 -17 33 -38 67 -45 76 -8 8 -14 19 -14 23 0 4 -20 41 -44 84 -51 90 -49 87
-206 367 -39 72 -75 133 -79 138 -4 4 -20 -16 -36 -45z"/>
</g>
</svg>
