<?xml version="1.0" standalone="no"?>
<!DOCTYPE svg PUBLIC "-//W3C//DTD SVG 20010904//EN"
 "http://www.w3.org/TR/2001/REC-SVG-20010904/DTD/svg10.dtd">
<svg version="1.0" xmlns="http://www.w3.org/2000/svg"
 width="602.000000pt" height="602.000000pt" viewBox="0 0 602.000000 602.000000"
 preserveAspectRatio="xMidYMid meet">
<metadata>
Created by potrace 1.11, written by Peter Selinger 2001-2013
</metadata>
<g transform="translate(0.000000,602.000000) scale(0.100000,-0.100000)"
fill="#000000" stroke="none">
<path d="M1287 4329 c178 -31 338 -150 418 -312 66 -133 64 -109 65 -982 0
-868 1 -870 60 -987 60 -117 149 -207 259 -263 111 -55 123 -57 456 -60 l310
-3 -85 21 c-200 51 -334 189 -392 404 -20 76 -21 101 -23 893 l-2 815 -27 80
c-61 180 -181 303 -365 374 -65 25 -69 25 -396 27 -220 2 -313 -1 -278 -7z"/>
<path d="M2768 4320 c210 -56 372 -217 426 -425 13 -50 15 -148 16 -615 1
-305 1 -663 1 -796 1 -274 9 -329 64 -440 66 -134 180 -234 333 -292 66 -25
71 -25 377 -27 l310 -2 -72 17 c-124 29 -241 101 -294 180 -13 19 -27 37 -31
40 -15 11 -66 137 -83 205 -17 64 -19 138 -21 875 -1 443 -4 814 -7 825 -3 11
-8 34 -12 50 -4 17 -24 63 -44 104 -49 103 -150 205 -251 254 -126 62 -151 65
-485 66 l-300 0 73 -19z"/>
<path d="M4190 4329 c76 -14 84 -16 150 -48 129 -62 221 -152 279 -276 56
-118 55 -97 56 -956 1 -437 5 -813 9 -835 40 -225 192 -399 411 -470 41 -14
106 -17 365 -19 173 -1 304 0 290 2 -270 39 -445 227 -484 518 -3 22 -5 389
-6 816 -1 841 0 825 -56 948 -22 48 -67 112 -114 162 -30 33 -113 90 -165 115
-100 47 -165 54 -485 53 -188 -1 -279 -4 -250 -10z"/>
<path d="M758 3450 c-174 -46 -311 -158 -383 -315 -55 -119 -58 -146 -58 -535
0 -407 6 -456 73 -575 77 -137 182 -224 330 -276 61 -21 84 -22 358 -25 160
-1 292 1 292 5 0 5 -8 8 -17 8 -30 -1 -104 23 -167 55 -115 58 -217 196 -263
353 -24 84 -30 753 -8 857 53 244 195 397 417 448 l83 19 -295 -1 c-248 0
-306 -3 -362 -18z"/>
</g>
</svg>
