<?xml version="1.0" encoding="utf-8"?>
<!-- Generator: Adobe Illustrator 25.2.1, SVG Export Plug-In . SVG Version: 6.00 Build 0)  -->
<svg version="1.1" id="Layer_1" xmlns="http://www.w3.org/2000/svg" xmlns:xlink="http://www.w3.org/1999/xlink" x="0px" y="0px"
	 viewBox="0 0 2295 1080" style="enable-background:new 0 0 1920 1080;" xml:space="preserve">
<style type="text/css">
	.st0{opacity:0.6;}
	.st1{clip-path:url(#SVGID_2_);fill:url(#SVGID_3_);}
	.st2{opacity:0.85;clip-path:url(#SVGID_2_);fill:url(#SVGID_4_);}
	.st3{opacity:0.84;clip-path:url(#SVGID_2_);fill:url(#SVGID_5_);}
</style>
<g class="st0">
	<defs>
		<rect id="SVGID_1_" class="st0" width="1920" height="1080"/>
	</defs>
	<clipPath id="SVGID_2_">
		<use xlink:href="#SVGID_1_"  style="overflow:visible;"/>
	</clipPath>
	<linearGradient id="SVGID_3_" gradientUnits="userSpaceOnUse" x1="147.9196" y1="862.8365" x2="46.2352" y2="1316.6051">
		<stop  offset="0.1106" style="stop-color:#FFFFFF"/>
		<stop  offset="0.1339" style="stop-color:#CFCFF5"/>
		<stop  offset="0.1575" style="stop-color:#A6A7EC"/>
		<stop  offset="0.1806" style="stop-color:#8687E5"/>
		<stop  offset="0.2028" style="stop-color:#6F70E0"/>
		<stop  offset="0.2236" style="stop-color:#6163DD"/>
		<stop  offset="0.2417" style="stop-color:#5C5EDC"/>
	</linearGradient>
	<path class="st1" d="M158.7,1631.3c-26.8,7.7-53.7,15.5-80.5,22.8c-255.5,68.8-514.8-102-548.2-364.4
		c-33.8-266.2,184.9-498.9,560.6-366.4c110.4,39.1,164.3,103.2,257.1,84.9c116.8-23,329.9,172.4,224.6,360.9
		C476.7,1540.4,290.2,1593.7,158.7,1631.3z"/>
	
		<linearGradient id="SVGID_4_" gradientUnits="userSpaceOnUse" x1="353.1003" y1="1243.1838" x2="346.3199" y2="875.7166" gradientTransform="matrix(0.9957 9.263124e-02 -9.263124e-02 0.9957 103.4458 -27.8931)">
		<stop  offset="0.5723" style="stop-color:#E63D87;stop-opacity:0.84"/>
		<stop  offset="0.5769" style="stop-color:#E64089;stop-opacity:0.8417"/>
		<stop  offset="0.6853" style="stop-color:#DD78AF;stop-opacity:0.8823"/>
		<stop  offset="0.7856" style="stop-color:#D5A5CD;stop-opacity:0.9198"/>
		<stop  offset="0.8746" style="stop-color:#D0C5E2;stop-opacity:0.9531"/>
		<stop  offset="0.9491" style="stop-color:#CDD9EF;stop-opacity:0.981"/>
		<stop  offset="1" style="stop-color:#CCE0F4"/>
	</linearGradient>
	<path class="st2" d="M21,972c70.1,32.8,116-7,168-2c43.8,4.2,91.9,26,129,44c99,48,140.9,27.7,204,30c139,5,349,75,273,106
		c-59.1,24.1-526.1,3.7-817-69C-62,1071-203,867,21,972z"/>
	
		<linearGradient id="SVGID_5_" gradientUnits="userSpaceOnUse" x1="-376.4796" y1="1300.2079" x2="642.1014" y2="1300.2079" gradientTransform="matrix(-1.0206 9.686368e-02 0.1263 1.0019 200.8184 -1.7978)">
		<stop  offset="0" style="stop-color:#FFFFFF;stop-opacity:0.5"/>
		<stop  offset="0.4359" style="stop-color:#7DC7E4"/>
		<stop  offset="0.5208" style="stop-color:#7BC7E4;stop-opacity:0.914"/>
		<stop  offset="0.5513" style="stop-color:#74C7E4;stop-opacity:0.883"/>
		<stop  offset="0.5731" style="stop-color:#69C7E4;stop-opacity:0.8609"/>
		<stop  offset="0.5907" style="stop-color:#58C7E4;stop-opacity:0.8431"/>
		<stop  offset="0.6058" style="stop-color:#42C7E4;stop-opacity:0.8278"/>
		<stop  offset="0.6191" style="stop-color:#26C7E4;stop-opacity:0.8143"/>
		<stop  offset="0.6309" style="stop-color:#07C7E4;stop-opacity:0.8023"/>
		<stop  offset="0.6332" style="stop-color:#00C7E4;stop-opacity:0.8"/>
	</linearGradient>
	<path class="st3" d="M708,1152.2c-59.3-84.4-172.6-110.2-199.2-116.2c-168.1-38.3-236.8,65-370.9,15
		C33.5,1012,27.6,931.6-58.5,929.2c-32.7-0.4-68.5,13.3-103.4,36.2c-177.1,116.4-191,370.4-31.2,509.5
		c203.5,177,565.4,317,770,181.2C729.4,1554.7,806.4,1292.1,708,1152.2z"/>
</g>
</svg>
